HIERARCHY
ROOT Hips
{
	OFFSET 0.000000 0.000000 0.000000
	CHANNELS 6 Xposition Yposition Zposition Xrotation Yrotation Zrotation
	JOINT LeftUpLeg_virtual
	{
		OFFSET 0.000000 0.000000 0.000000
		CHANNELS 3 Xrotation Yrotation Zrotation
		JOINT LeftUpLeg
		{
			OFFSET 15.427100 -6.655098 0.678600
			CHANNELS 3 Xrotation Yrotation Zrotation
			JOINT LeftLeg
			{
				OFFSET 4.081073 -39.591068 13.024000
				CHANNELS 3 Xrotation Yrotation Zrotation
				JOINT LeftFoot
				{
					OFFSET -4.081074 -37.707932 -15.979700
					CHANNELS 3 Xrotation Yrotation Zrotation
					JOINT LeftToeBase
					{
						OFFSET 5.346399 -15.068900 20.645000
						CHANNELS 3 Xrotation Yrotation Zrotation
						JOINT LeftToe_End
						{
							OFFSET 2.754700 0.931300 11.300900
							CHANNELS 3 Xrotation Yrotation Zrotation
							End Site
							{
								OFFSET 0 0 0
							}
						}
					}
				}
			}
		}
	}
	JOINT RightUpLeg_virtual
	{
		OFFSET 0.000000 0.000000 0.000000
		CHANNELS 3 Xrotation Yrotation Zrotation
		JOINT RightUpLeg
		{
			OFFSET -15.569500 -6.655098 0.678600
			CHANNELS 3 Xrotation Yrotation Zrotation
			JOINT RightLeg
			{
				OFFSET -4.081825 -39.591045 13.023800
				CHANNELS 3 Xrotation Yrotation Zrotation
				JOINT RightFoot
				{
					OFFSET 4.081824 -37.707954 -15.979600
					CHANNELS 3 Xrotation Yrotation Zrotation
					JOINT RightToeBase
					{
						OFFSET -5.346400 -15.068900 20.645000
						CHANNELS 3 Xrotation Yrotation Zrotation
						JOINT RightToe_End
						{
							OFFSET -2.754700 0.931300 11.300900
							CHANNELS 3 Xrotation Yrotation Zrotation
							End Site
							{
								OFFSET 0 0 0
							}
						}
					}
				}
			}
		}
	}
	JOINT Spine_virtual
	{
		OFFSET 0.000000 0.000000 0.000000
		CHANNELS 3 Xrotation Yrotation Zrotation
		JOINT Spine
		{
			OFFSET -0.279200 12.230698 -2.892100
			CHANNELS 3 Xrotation Yrotation Zrotation
			JOINT Spine1
			{
				OFFSET -0.232667 10.192268 -1.242267
				CHANNELS 3 Xrotation Yrotation Zrotation
				JOINT Spine1_split
				{
					OFFSET -0.232667 10.192268 -1.242267
					CHANNELS 3 Xrotation Yrotation Zrotation
					JOINT Spine2
					{
						OFFSET -0.232667 10.192268 -1.242267
						CHANNELS 3 Xrotation Yrotation Zrotation
						JOINT Neck_virtual
						{
							OFFSET 0.000000 0.000000 0.000000
							CHANNELS 3 Xrotation Yrotation Zrotation
							JOINT Neck
							{
								OFFSET -0.418800 17.814194 8.416900
								CHANNELS 3 Xrotation Yrotation Zrotation
								JOINT Head
								{
									OFFSET 0.000000 7.031097 3.806800
									CHANNELS 3 Xrotation Yrotation Zrotation
									JOINT HeadTop_End
									{
										OFFSET 0.000000 24.646606 12.978600
										CHANNELS 3 Xrotation Yrotation Zrotation
										End Site
										{
											OFFSET 0 0 0
										}
									}
								}
							}
						}
						JOINT LeftShoulder_virtual
						{
							OFFSET 0.000000 0.000000 0.000000
							CHANNELS 3 Xrotation Yrotation Zrotation
							JOINT LeftShoulder
							{
								OFFSET 8.476499 7.247704 -3.868750
								CHANNELS 3 Xrotation Yrotation Zrotation
								JOINT LeftShoulder_split
								{
									OFFSET 8.476499 7.247704 -3.868750
									CHANNELS 3 Xrotation Yrotation Zrotation
									JOINT LeftArm
									{
										OFFSET 9.308998 -2.777710 0.208600
										CHANNELS 3 Xrotation Yrotation Zrotation
										JOINT LeftForeArm
										{
											OFFSET 29.972298 0.000000 0.000000
											CHANNELS 3 Xrotation Yrotation Zrotation
											JOINT LeftHand
											{
												OFFSET 26.026505 0.000000 0.000000
												CHANNELS 3 Xrotation Yrotation Zrotation
												End Site
												{
													OFFSET 0 0 0
												}
											}
										}
									}
								}
							}
						}
						JOINT RightShoulder_virtual
						{
							OFFSET 0.000000 0.000000 0.000000
							CHANNELS 3 Xrotation Yrotation Zrotation
							JOINT RightShoulder
							{
								OFFSET -7.570500 7.247704 -3.868750
								CHANNELS 3 Xrotation Yrotation Zrotation
								JOINT RightShoulder_split
								{
									OFFSET -7.570500 7.247704 -3.868750
									CHANNELS 3 Xrotation Yrotation Zrotation
									JOINT RightArm
									{
										OFFSET -9.308998 -2.777710 0.208500
										CHANNELS 3 Xrotation Yrotation Zrotation
										JOINT RightForeArm
										{
											OFFSET -29.972300 0.000000 0.000000
											CHANNELS 3 Xrotation Yrotation Zrotation
											JOINT RightHand
											{
												OFFSET -26.026505 0.000000 0.000000
												CHANNELS 3 Xrotation Yrotation Zrotation
												End Site
												{
													OFFSET 0 0 0
												}
											}
										}
									}
								}
							}
						}
					}
				}
			}
		}
	}
}
MOTION
Frames: 9
Frame Time: 0.03333333
6.237955 62.247086 132.193878 0.000000 0.000000 0.000000 6.013691 -25.560142 -1.625769 41.671698 26.161800 5.608627 2.136036 10.168832 3.656264 -19.782420 -0.282905 -44.807588 -22.117730 -0.040262 -6.317093 0.000000 0.000000 0.000000 7.756312 -22.740930 -2.665358 -81.465360 -4.133280 -10.243186 40.927262 1.271627 -0.869559 30.724353 6.469726 6.137957 -3.844234 4.156344 2.799003 0.000000 0.000000 0.000000 6.636003 -22.471095 -1.120064 4.456575 -6.086625 2.527974 3.287817 -6.135301 0.552030 1.419207 -5.416096 0.437516 0.000000 0.000000 0.000000 4.224175 -5.880423 0.532358 11.308880 1.118399 11.605637 -0.256967 6.102105 -15.405251 0.000000 0.000000 0.000000 4.790498 -6.719122 -0.107320 -2.278553 -13.481496 -17.761350 -7.020389 5.880208 -0.068023 -39.906073 -13.248182 -23.009538 -15.070321 -67.849214 14.753011 0.000000 0.000000 0.000000 4.196008 -5.861951 1.366693 -0.448917 0.049256 -0.334348 -6.828900 -1.240484 -3.705525 -30.371929 44.063497 10.500233 47.156739 29.334290 -18.663982 0.000000 0.000000 0.000000 
6.207332 61.479973 136.179718 0.000000 0.000000 0.000000 8.432204 -29.141552 -2.083876 45.860168 27.420565 2.598103 -4.845147 11.761937 6.395429 -17.695881 -2.132898 -46.328128 -26.803686 -0.231496 -3.373870 0.000000 0.000000 0.000000 10.555992 -26.297514 -2.717255 -80.304146 -4.863780 -4.818550 39.203349 -0.285579 -2.359240 27.487825 6.770770 4.713610 -3.532710 3.290474 3.164631 0.000000 0.000000 0.000000 9.016485 -27.159344 -1.804029 4.483734 -9.545735 3.071667 3.591127 -9.689176 1.604872 1.203287 -3.565838 0.226347 0.000000 0.000000 0.000000 4.012874 -9.410387 1.902305 8.582707 4.378306 13.745862 2.813934 13.360573 -19.835645 0.000000 0.000000 0.000000 4.821163 -10.275001 1.263921 -4.290553 -18.962436 -18.942369 -7.185695 6.794234 0.381696 -37.788787 -21.304204 -27.325936 -12.131575 -52.510918 13.642311 0.000000 0.000000 0.000000 4.285353 -9.383363 2.728422 -0.424257 -2.921787 6.676574 -5.935560 -1.853351 -3.827837 -20.136542 33.511924 1.834314 37.765574 22.666948 -7.274958 0.000000 0.000000 0.000000 
6.142173 61.215736 140.923981 0.000000 0.000000 0.000000 11.031188 -32.468575 -2.273753 47.032993 30.214325 2.248105 -6.137071 13.340473 6.866288 -12.850747 -5.645418 -45.591523 -29.384826 -0.999270 0.468511 0.000000 0.000000 0.000000 13.367672 -29.082785 -2.541487 -79.525422 -4.038602 -0.305533 39.291063 -1.019156 -3.438663 23.851688 7.601618 3.783013 -2.828089 2.836172 3.363063 0.000000 0.000000 0.000000 11.155301 -31.042342 -2.357662 4.378323 -11.980116 3.273056 4.143462 -12.298618 2.604678 0.644191 -2.052990 0.252699 0.000000 0.000000 0.000000 4.348711 -11.989840 3.207701 5.411967 7.039022 15.613862 5.406636 19.036991 -23.104749 0.000000 0.000000 0.000000 5.080709 -12.804244 2.607803 -5.615483 -23.018928 -18.416463 -6.782156 6.823013 0.613889 -37.193232 -29.877525 -32.777327 -10.281422 -37.718357 11.047682 0.000000 0.000000 0.000000 4.500465 -12.013911 3.845754 -0.130304 -5.492570 11.178162 -4.632466 -2.037248 -2.885417 -17.055855 24.787086 -0.145655 31.337615 23.019015 -1.723564 0.000000 0.000000 0.000000 
5.974578 61.539337 146.344482 0.000000 0.000000 0.000000 13.500145 -36.226528 -1.916242 44.218371 34.168998 5.112193 -0.388307 15.093432 4.901869 -4.044198 -10.749191 -42.042287 -27.460217 -1.604627 3.898569 0.000000 0.000000 0.000000 15.971919 -31.920705 -1.988864 -78.675583 -2.384787 3.286453 40.450047 -1.046343 -3.931548 20.380379 8.967984 3.396393 -2.543785 2.773606 3.228828 0.000000 0.000000 0.000000 12.811454 -34.817678 -2.761604 3.996155 -13.199776 3.155208 4.738745 -13.834326 3.341259 0.149546 -1.200156 0.335946 0.000000 0.000000 0.000000 5.022488 -13.478348 4.161995 2.136420 9.078391 17.174350 6.882824 23.269758 -24.990918 0.000000 0.000000 0.000000 5.370890 -14.215932 3.649557 -6.168829 -25.594742 -16.411394 -5.755774 6.269416 0.314441 -39.509356 -37.436246 -39.828810 -8.988926 -26.445364 7.830198 0.000000 0.000000 0.000000 4.676888 -13.600470 4.521242 0.187386 -7.060545 13.211079 -2.902655 -1.761741 -1.331023 -17.550202 18.469786 0.969289 25.334258 27.960112 0.925561 0.000000 0.000000 0.000000 
5.737769 62.628830 151.983429 0.000000 0.000000 0.000000 15.411207 -40.553818 -0.956719 37.073290 37.377319 11.075533 11.571952 17.092378 1.181753 7.395629 -14.451125 -34.057946 -21.254528 -1.148496 5.252601 0.000000 0.000000 0.000000 17.929482 -35.263946 -1.033274 -76.890602 -0.493438 5.899677 41.547952 -0.700601 -3.798866 17.319644 10.301198 3.374332 -2.716714 2.994070 2.840950 0.000000 0.000000 0.000000 14.019124 -38.863589 -2.850681 3.431442 -13.231238 2.763009 5.198630 -14.349054 3.674977 0.145625 -0.823861 0.999472 0.000000 0.000000 0.000000 5.767339 -13.959636 4.616579 -0.909006 10.576489 18.347702 7.091035 26.239821 -25.426907 0.000000 0.000000 0.000000 5.476578 -14.617472 4.153640 -6.062453 -26.698663 -13.612374 -4.175611 5.263313 -0.604581 -44.376490 -42.351189 -47.564474 -8.140818 -19.233814 4.529951 0.000000 0.000000 0.000000 4.717455 -14.168145 4.705817 0.415545 -7.141964 13.165079 -1.096662 -1.908872 0.978941 -19.505584 14.238332 3.414863 18.691827 32.478803 2.578279 0.000000 0.000000 0.000000 
5.213954 64.539062 157.531387 0.000000 0.000000 0.000000 16.569337 -44.575932 0.317094 26.827590 37.565071 19.241191 27.313324 18.150227 -2.950613 17.293696 -14.095318 -23.281721 -13.471110 0.251973 3.669184 0.000000 0.000000 0.000000 18.960440 -39.310078 0.234633 -73.568657 1.362176 7.522481 41.869466 -0.260655 -3.225832 14.096852 11.390325 3.584106 -2.590037 3.369843 2.373413 0.000000 0.000000 0.000000 14.638110 -43.030581 -2.596678 2.826262 -12.331490 2.271780 5.409999 -14.055318 3.604458 0.665687 -1.009446 1.533128 0.000000 0.000000 0.000000 6.256005 -13.648292 4.510274 -3.427781 11.600664 19.011999 6.128676 28.010066 -24.498704 0.000000 0.000000 0.000000 5.377693 -14.222087 4.101730 -5.456046 -26.638407 -10.626625 -2.655016 3.713134 -1.563128 -50.052142 -44.150537 -54.244307 -7.720497 -15.432859 1.592932 0.000000 0.000000 0.000000 4.528854 -13.911054 4.451617 0.597693 -5.967153 11.850035 0.775259 -2.548674 3.012164 -21.745716 11.607068 6.117518 11.295508 32.023390 3.946240 0.000000 0.000000 0.000000 
4.396255 67.045837 162.948364 0.000000 0.000000 0.000000 16.933226 -48.100053 1.740565 16.807374 33.761700 26.319436 42.447160 17.463472 -5.447706 21.697926 -10.895115 -14.171637 -8.171831 1.909993 -0.225659 0.000000 0.000000 0.000000 18.950428 -43.512758 1.644784 -68.565332 3.279698 7.873513 41.178200 0.233149 -2.449023 10.140059 12.322454 4.020656 -1.803154 3.701569 2.035653 0.000000 0.000000 0.000000 14.600100 -47.075183 -1.844067 2.347874 -10.940739 1.807739 5.299848 -13.271589 3.184925 1.408784 -1.064196 1.927836 0.000000 0.000000 0.000000 6.279626 -12.850653 3.921945 -5.019131 12.312009 19.026064 4.641822 28.544930 -22.616228 0.000000 0.000000 0.000000 5.149467 -13.373427 3.613743 -4.524390 -25.688676 -7.699904 -1.476612 2.056187 -2.664890 -54.763320 -44.356239 -58.148372 -7.442237 -14.215760 -0.704444 0.000000 0.000000 0.000000 4.121879 -13.125755 3.887744 0.807835 -4.242846 9.909509 2.682224 -3.334099 3.981767 -24.444858 9.934594 8.071597 4.040432 26.396255 4.466793 0.000000 0.000000 0.000000 
3.284035 69.655487 168.203018 0.000000 0.000000 0.000000 16.341707 -50.993181 2.945559 8.419531 27.411021 30.960879 54.242900 15.661001 -5.877656 19.221262 -7.170092 -7.514547 -6.301217 3.432937 -5.231731 0.000000 0.000000 0.000000 17.825810 -47.373881 2.780396 -62.232060 5.545149 6.918800 39.986977 0.883212 -1.835325 5.076341 12.959624 5.212624 -0.781848 3.757897 1.943748 0.000000 0.000000 0.000000 13.924249 -50.435469 -0.587878 2.156678 -9.431497 1.382125 4.962479 -12.239538 2.559890 1.660505 -1.033530 2.031698 0.000000 0.000000 0.000000 5.874480 -11.814612 3.068480 -5.381380 12.741194 18.305327 3.394089 27.934562 -20.231886 0.000000 0.000000 0.000000 4.866926 -12.283823 2.904028 -3.410149 -24.050235 -5.051051 -0.824244 0.033215 -3.097335 -58.320451 -44.665155 -58.956506 -7.129132 -14.919881 -2.237612 0.000000 0.000000 0.000000 3.555086 -12.093185 3.179871 1.046907 -2.979307 7.537623 4.439915 -4.180584 4.049806 -28.745770 9.507878 9.444497 -2.405012 20.213537 3.858551 0.000000 0.000000 0.000000 
2.080832 71.783234 173.240860 0.000000 0.000000 0.000000 14.978501 -52.873932 3.862749 0.819352 21.026476 33.896521 62.256539 13.339927 -4.740448 11.867410 -4.742348 -2.499171 -5.363851 4.557381 -9.679759 0.000000 0.000000 0.000000 15.627893 -49.958534 3.295763 -54.993029 8.208391 4.453221 39.010359 1.771268 -1.769380 -1.288665 13.079817 7.438149 -0.391634 3.324160 2.052721 0.000000 0.000000 0.000000 12.544059 -52.921617 0.900962 2.224031 -8.157236 1.064598 4.425990 -11.191774 1.865309 1.463150 -0.993250 1.470117 0.000000 0.000000 0.000000 5.185088 -10.723072 2.116697 -4.252937 12.876566 16.758255 3.034191 26.326800 -17.840461 0.000000 0.000000 0.000000 4.614986 -11.139070 2.189233 -2.180496 -21.690620 -2.427286 -0.320193 -2.030235 -2.870769 -61.419848 -46.271936 -57.239533 -6.869711 -17.455138 -3.206530 0.000000 0.000000 0.000000 2.953097 -11.043379 2.433129 1.233741 -3.208084 4.688917 5.443226 -4.676216 3.409886 -36.059615 10.439224 10.689634 -8.062687 18.974062 3.519763 0.000000 0.000000 0.000000 
